<?xml version="1.0" encoding="UTF-8"?>
<svg xmlns="http://www.w3.org/2000/svg" width="100" height="60" viewBox="0 0 100 60" fill="none">
  <path d="M98.9619 51.9963H44.269V1.04876H98.9619V51.9963ZM100 0H43.231V53.0451H100V0Z" fill="#A4A4A4"></path>
  <path d="M57.8616 22.5269C56.4084 24.0062 54.8404 24.7403 53.1632 24.7403C51.486 24.7403 50.0655 24.1442 48.8855 22.9519C47.7054 21.7596 47.1154 20.319 47.1154 18.6299C47.1154 16.9409 47.7054 15.5002 48.8855 14.3079C50.0655 13.1157 51.4914 12.5195 53.1632 12.5195C54.835 12.5195 56.2609 13.1157 57.441 14.3079C58.621 15.5002 59.2111 16.9409 59.2111 18.6299V24.0669C59.2111 24.2546 59.1455 24.4147 59.0144 24.5471C58.8833 24.6796 58.7248 24.7458 58.5391 24.7458C58.3533 24.7458 58.1894 24.6796 58.0583 24.5471C57.9272 24.4147 57.8562 24.2546 57.8562 24.0669V22.5269H57.8616ZM53.1632 13.8719C51.8684 13.8719 50.7594 14.3355 49.8361 15.2684C48.9128 16.2012 48.4539 17.3217 48.4539 18.6299C48.4539 19.9381 48.9128 21.0586 49.8361 21.9915C50.7594 22.9243 51.8684 23.388 53.1632 23.388C54.458 23.388 55.5671 22.9243 56.4904 21.9915C57.4136 21.0586 57.8616 19.9492 57.8616 18.6299C57.8616 17.3107 57.4027 16.1902 56.4904 15.2684C55.5671 14.3355 54.458 13.8719 53.1632 13.8719Z" fill="#A4A4A4"></path>
  <path d="M71.6455 12.7124C71.5144 12.5799 71.356 12.5137 71.1702 12.5137C70.9845 12.5137 70.826 12.5799 70.6949 12.7124C70.5638 12.8449 70.4982 13.0049 70.4982 13.1926V19.0767C70.4982 20.269 70.083 21.2846 69.2581 22.1236C68.4003 22.9681 67.3951 23.3876 66.2423 23.3876C65.0896 23.3876 64.0843 22.9681 63.2266 22.1236C62.3962 21.2846 61.9864 20.269 61.9864 19.0767V13.1926C61.9864 13.0049 61.9209 12.8449 61.7897 12.7124C61.6586 12.5799 61.5002 12.5137 61.3144 12.5137C61.1287 12.5137 60.9703 12.5799 60.8391 12.7124C60.708 12.8449 60.6425 13.0049 60.6425 13.1926V19.0767C60.6425 20.6498 61.1833 21.9856 62.276 23.0951C63.385 24.1935 64.7071 24.7455 66.2423 24.7455C67.7775 24.7455 69.0996 24.1935 70.2087 23.0951C71.2959 21.9911 71.8422 20.6498 71.8422 19.0767V13.1926C71.8422 13.0049 71.7766 12.8449 71.6455 12.7124Z" fill="#A4A4A4"></path>
  <path d="M79.0101 24.5802C78.9008 24.6906 78.7478 24.7458 78.5457 24.7458C78.3435 24.7458 78.1906 24.6851 78.0704 24.5582C78.0212 24.5085 77.983 24.4588 77.9611 24.4036L72.9895 13.4579C72.9622 13.3861 72.9458 13.2978 72.9458 13.1985C72.9458 13.0108 73.0114 12.8507 73.1425 12.7182C73.2736 12.5858 73.432 12.5195 73.6178 12.5195C73.8035 12.5195 73.9674 12.5802 74.104 12.7072C74.1477 12.7514 74.186 12.8066 74.2242 12.8838L78.5457 22.4331L82.8671 12.8838C82.8944 12.8231 82.9327 12.7679 82.9873 12.7182C83.1239 12.5858 83.2878 12.5195 83.4736 12.5195C83.6593 12.5195 83.8232 12.5802 83.9543 12.7127C84.0854 12.8397 84.1565 12.9998 84.1565 13.1985C84.1565 13.2923 84.1401 13.3806 84.1018 13.4579L79.1302 24.4036C79.1029 24.4699 79.0592 24.5251 79.0101 24.5802Z" fill="#A4A4A4"></path>
  <path d="M94.6733 22.5269C93.2201 24.0062 91.6521 24.7403 89.9749 24.7403C88.2976 24.7403 86.8772 24.1442 85.6971 22.9519C84.517 21.7596 83.927 20.319 83.927 18.6299C83.927 16.9409 84.517 15.5002 85.6971 14.3079C86.8772 13.1157 88.3031 12.5195 89.9749 12.5195C91.6466 12.5195 93.0725 13.1157 94.2526 14.3079C95.4327 15.5002 96.0227 16.9409 96.0227 18.6299V24.0669C96.0227 24.2546 95.9572 24.4147 95.826 24.5471C95.6949 24.6796 95.5365 24.7458 95.3507 24.7458C95.165 24.7458 95.0011 24.6796 94.87 24.5471C94.7388 24.4147 94.6678 24.2546 94.6678 24.0669V22.5269H94.6733ZM89.9749 13.8719C88.6801 13.8719 87.571 14.3355 86.6477 15.2684C85.7244 16.2012 85.2655 17.3217 85.2655 18.6299C85.2655 19.9381 85.7244 21.0586 86.6477 21.9915C87.571 22.9243 88.6801 23.388 89.9749 23.388C91.2697 23.388 92.3787 22.9243 93.302 21.9915C94.2253 21.0586 94.6733 19.9492 94.6733 18.6299C94.6733 17.3107 94.2144 16.1902 93.302 15.2684C92.3787 14.3355 91.2697 13.8719 89.9749 13.8719Z" fill="#A4A4A4"></path>
  <path d="M52.2509 38.8762V38.7217L52.9228 38.6113V33.2405L52.2509 33.1357V32.9756H54.3979V33.1357L53.7259 33.2405V38.6113L54.3979 38.7217V38.8762H52.2509Z" fill="#A4A4A4"></path>
  <path d="M56.9823 38.6337L56.3595 38.9538H56.201V37.0605H56.3595L56.9878 38.4349C57.392 38.7275 57.8564 38.871 58.3754 38.871C58.8016 38.871 59.1567 38.7551 59.4353 38.5288C59.7139 38.3025 59.856 37.9768 59.856 37.5683C59.856 37.2703 59.7631 37.0329 59.5883 36.8563C59.408 36.6797 59.1184 36.5417 58.7142 36.4423L57.5013 36.1222C57.0752 36.0062 56.7583 35.8186 56.5452 35.5426C56.3322 35.2666 56.2229 34.9464 56.2229 34.5711C56.2229 34.2344 56.2885 33.9308 56.425 33.6659C56.5616 33.4009 56.7528 33.1967 57.0151 33.0532C57.2719 32.9096 57.5778 32.8379 57.9329 32.8379C58.3754 32.8379 58.7743 32.9152 59.1239 33.0697L59.6593 32.8379H59.8177V34.3448H59.6593L59.1348 33.2684C58.7688 33.0918 58.3754 33.0035 57.9438 33.0035C57.5122 33.0035 57.1844 33.1139 56.9441 33.3292C56.7037 33.5444 56.578 33.837 56.578 34.1958C56.578 34.4607 56.6654 34.6705 56.8348 34.825C57.0096 34.9796 57.2609 35.0955 57.5996 35.1838L58.9054 35.5315C59.3315 35.6419 59.6429 35.8241 59.8505 36.089C60.0581 36.354 60.1619 36.7514 60.1619 37.2868C60.1619 37.8223 59.998 38.2583 59.6593 38.5729C59.3261 38.882 58.8781 39.0366 58.3208 39.0366C57.8674 39.0366 57.4248 38.9041 56.9823 38.6447V38.6337Z" fill="#A4A4A4"></path>
  <path d="M63.3194 38.6333C62.8987 38.3739 62.5764 38.0096 62.3415 37.5404C62.1065 37.0712 61.9918 36.5358 61.9918 35.9286C61.9918 35.3215 62.1065 34.786 62.3415 34.3169C62.5764 33.8477 62.8987 33.4834 63.3194 33.2239C63.7401 32.9645 64.2099 32.832 64.7453 32.832C65.2807 32.832 65.7506 32.9645 66.1712 33.2239C66.5919 33.4834 66.9142 33.8477 67.1492 34.3169C67.3841 34.786 67.4988 35.3215 67.4988 35.9286C67.4988 36.5358 67.3841 37.0712 67.1492 37.5404C66.9142 38.0096 66.5864 38.3739 66.1712 38.6333C65.7506 38.8928 65.2807 39.0252 64.7453 39.0252C64.2099 39.0252 63.7401 38.8928 63.3194 38.6333ZM65.685 38.5781C65.9636 38.3905 66.1876 38.12 66.3461 37.7612C66.5045 37.4024 66.5864 36.9829 66.5864 36.4972V35.3601C66.5864 34.8744 66.5045 34.4493 66.3461 34.0961C66.1876 33.7373 65.9636 33.4668 65.685 33.2791C65.4064 33.0915 65.0895 32.9976 64.7399 32.9976C64.3902 32.9976 64.0679 33.0915 63.7892 33.2791C63.5106 33.4668 63.2921 33.7373 63.1337 34.0961C62.9752 34.4548 62.8933 34.8744 62.8933 35.3601V36.4972C62.8933 36.9829 62.9752 37.4079 63.1337 37.7612C63.2921 38.12 63.5106 38.3905 63.7892 38.5781C64.0679 38.7658 64.3847 38.8596 64.7399 38.8596C65.095 38.8596 65.4064 38.7658 65.685 38.5781Z" fill="#A4A4A4"></path>
  <path d="M72.995 38.8983C72.7547 38.81 72.5634 38.694 72.4269 38.5395C72.2903 38.3849 72.2193 38.2193 72.2193 38.0317C72.2193 37.8661 72.2739 37.7226 72.3777 37.6066C72.4815 37.4907 72.6126 37.4355 72.7656 37.4355C72.8967 37.4355 73.006 37.4742 73.0934 37.5459C73.1808 37.6177 73.2245 37.7226 73.2245 37.8495C73.1535 37.9102 73.0988 37.9654 73.0661 38.0261C73.0333 38.0869 73.0169 38.1586 73.0169 38.2414C73.0169 38.4236 73.0879 38.5781 73.2354 38.6996C73.3829 38.821 73.5687 38.8817 73.8036 38.8817C74.1806 38.8817 74.4811 38.7272 74.7051 38.4236C74.929 38.12 75.0438 37.6177 75.0492 36.9277V36.0997C74.9072 36.2764 74.7324 36.4144 74.5248 36.5082C74.3172 36.602 74.0986 36.6517 73.8637 36.6517C73.5031 36.6517 73.1863 36.58 72.9076 36.4309C72.629 36.2819 72.4159 36.0666 72.2575 35.7906C72.0991 35.5146 72.0226 35.1724 72.0226 34.7805C72.0226 34.3886 72.11 34.0298 72.2903 33.7373C72.4706 33.4447 72.7055 33.2184 73.006 33.0639C73.3064 32.9093 73.6342 32.832 73.9894 32.832C74.7051 32.832 75.2131 33.108 75.5082 33.6655C75.8032 34.223 75.9507 35.0013 75.9507 36.0059C75.9507 37.0105 75.7595 37.7502 75.377 38.2635C74.9946 38.7768 74.4701 39.0307 73.7982 39.0307C73.4977 39.0307 73.2245 38.9866 72.9841 38.9038L72.995 38.8983ZM74.5903 36.2764C74.7979 36.1439 74.9564 35.9673 75.0711 35.741V34.7143C75.082 34.1568 74.9946 33.7318 74.8198 33.4337C74.645 33.1356 74.3718 32.9866 74.0058 32.9866C73.6397 32.9866 73.3884 33.1135 73.1972 33.3619C73.0114 33.6158 72.9186 33.9581 72.9186 34.3997V35.1227C72.9186 35.5533 73.0005 35.879 73.1699 36.1163C73.3392 36.3481 73.5905 36.464 73.9347 36.464C74.1697 36.464 74.3882 36.3978 74.5958 36.2709L74.5903 36.2764Z" fill="#A4A4A4"></path>
  <path d="M78.8571 38.6775C78.5402 38.4456 78.2944 38.0979 78.1195 37.6342C77.9447 37.1706 77.8573 36.602 77.8573 35.9286C77.8573 35.2552 77.9447 34.6867 78.1195 34.223C78.2944 33.7594 78.5402 33.4116 78.8571 33.1798C79.174 32.9479 79.5455 32.832 79.9661 32.832C80.3868 32.832 80.7583 32.9479 81.0752 33.1798C81.392 33.4116 81.6379 33.7594 81.8127 34.223C81.9875 34.6867 82.075 35.2552 82.075 35.9286C82.075 36.602 81.9875 37.1706 81.8127 37.6342C81.6379 38.0979 81.392 38.4456 81.0752 38.6775C80.7583 38.9093 80.3868 39.0252 79.9661 39.0252C79.5455 39.0252 79.174 38.9093 78.8571 38.6775ZM80.8293 38.3187C81.0369 37.9599 81.1462 37.3969 81.1462 36.6352V35.2111C81.1462 34.4548 81.0424 33.8974 80.8293 33.5386C80.6163 33.1798 80.3322 32.9976 79.9661 32.9976C79.6001 32.9976 79.316 33.1798 79.1029 33.5386C78.8953 33.8974 78.7861 34.4548 78.7861 35.2111V36.6352C78.7861 37.3914 78.8899 37.9544 79.1029 38.3132C79.3105 38.6775 79.6001 38.8541 79.9661 38.8541C80.3322 38.8541 80.6163 38.672 80.8293 38.3132V38.3187Z" fill="#A4A4A4"></path>
  <path d="M84.9541 38.6775C84.6373 38.4456 84.3914 38.0979 84.2166 37.6342C84.0418 37.1706 83.9543 36.602 83.9543 35.9286C83.9543 35.2552 84.0418 34.6867 84.2166 34.223C84.3914 33.7594 84.6373 33.4116 84.9541 33.1798C85.271 32.9479 85.6425 32.832 86.0632 32.832C86.4838 32.832 86.8554 32.9479 87.1722 33.1798C87.4891 33.4116 87.7349 33.7594 87.9098 34.223C88.0846 34.6867 88.172 35.2552 88.172 35.9286C88.172 36.602 88.0846 37.1706 87.9098 37.6342C87.7349 38.0979 87.4891 38.4456 87.1722 38.6775C86.8554 38.9093 86.4838 39.0252 86.0632 39.0252C85.6425 39.0252 85.271 38.9093 84.9541 38.6775ZM86.9209 38.3187C87.1285 37.9599 87.2378 37.3969 87.2378 36.6352V35.2111C87.2378 34.4548 87.134 33.8974 86.9209 33.5386C86.7078 33.1798 86.4237 32.9976 86.0577 32.9976C85.6917 32.9976 85.4076 33.1798 85.1945 33.5386C84.9869 33.8974 84.8776 34.4548 84.8776 35.2111V36.6352C84.8776 37.3914 84.9814 37.9544 85.1945 38.3132C85.4021 38.6775 85.6917 38.8541 86.0577 38.8541C86.4237 38.8541 86.7078 38.672 86.9209 38.3132V38.3187Z" fill="#A4A4A4"></path>
  <path d="M90.0295 38.8762V38.7272L90.5431 38.6554V33.1964L90.0295 33.1246V32.9756H91.2697V38.6554L91.7833 38.7272V38.8762H90.0295Z" fill="#A4A4A4"></path>
  <path d="M57.6813 43.938C57.7141 43.938 57.7469 43.9545 57.7742 43.9821L58.031 44.2636C57.8889 44.4403 57.7141 44.5783 57.5065 44.6721C57.2989 44.7659 57.0476 44.8156 56.758 44.8156C56.4958 44.8156 56.2609 44.7715 56.0533 44.6776C55.8457 44.5893 55.6654 44.4623 55.5179 44.3023C55.3704 44.1422 55.2556 43.949 55.1792 43.7282C55.1027 43.5074 55.059 43.2646 55.059 42.9996C55.059 42.7347 55.1027 42.4863 55.1901 42.2655C55.2775 42.0447 55.4032 41.8515 55.5616 41.6914C55.72 41.5313 55.9112 41.4044 56.1298 41.3161C56.3538 41.2278 56.5941 41.1836 56.8618 41.1836C57.1295 41.1836 57.3535 41.2277 57.5448 41.3105C57.7414 41.3933 57.9053 41.5093 58.0474 41.6473L57.8288 41.9564C57.8288 41.9564 57.8015 41.995 57.7797 42.006C57.7578 42.0226 57.7305 42.0281 57.6977 42.0281C57.6649 42.0281 57.6212 42.0116 57.583 41.984C57.5448 41.9564 57.4956 41.9232 57.4355 41.8901C57.3754 41.857 57.2989 41.8239 57.206 41.7963C57.1132 41.7687 56.9984 41.7521 56.8564 41.7521C56.6925 41.7521 56.5395 41.7797 56.4029 41.8404C56.2664 41.9012 56.1462 41.984 56.0478 42.0888C55.9495 42.1992 55.8675 42.3262 55.8129 42.4807C55.7583 42.6353 55.7309 42.8119 55.7309 43.0051C55.7309 43.1983 55.7583 43.3805 55.8129 43.5405C55.8675 43.7006 55.944 43.8276 56.0424 43.9324C56.1352 44.0373 56.25 44.1201 56.3811 44.1753C56.5122 44.2305 56.6488 44.2581 56.8017 44.2581C56.8892 44.2581 56.9711 44.2581 57.0421 44.2416C57.1132 44.2305 57.1787 44.214 57.2443 44.1974C57.3044 44.1753 57.3645 44.1477 57.4191 44.1146C57.4737 44.0815 57.5284 44.0373 57.583 43.9932C57.5994 43.9766 57.6158 43.9656 57.6322 43.96C57.6486 43.949 57.6704 43.949 57.6923 43.949L57.6813 43.938Z" fill="#A4A4A4"></path>
  <path d="M62.0031 41.2227V41.747H60.4461V42.7351H61.6753V43.2429H60.4461V44.2475H62.0031V44.7774H59.785V41.2227H62.0031Z" fill="#A4A4A4"></path>
  <path d="M64.505 43.3861V44.7715H63.8494V41.2168H64.9202C65.1606 41.2168 65.3682 41.2389 65.5375 41.2941C65.7069 41.3438 65.8489 41.4155 65.9582 41.5038C66.0675 41.5921 66.1494 41.7025 66.1986 41.824C66.2477 41.9509 66.2751 42.0889 66.2751 42.238C66.2751 42.3594 66.2587 42.4698 66.2204 42.5747C66.1876 42.6795 66.133 42.7789 66.0675 42.8672C66.0019 42.9555 65.92 43.0273 65.8216 43.0935C65.7233 43.1598 65.614 43.2094 65.4938 43.2536C65.5758 43.3033 65.6468 43.3695 65.7069 43.4578L66.5865 44.7715H65.9964C65.9418 44.7715 65.8926 44.7605 65.8544 44.7384C65.8161 44.7163 65.7834 44.6832 65.7561 44.6391L65.0185 43.502C64.9912 43.4578 64.9584 43.4302 64.9256 43.4081C64.8929 43.3916 64.8437 43.3805 64.7781 43.3805H64.4995L64.505 43.3861ZM64.505 42.9114H64.9147C65.0404 42.9114 65.1442 42.8948 65.237 42.8672C65.3299 42.8396 65.4064 42.7955 65.461 42.7403C65.5211 42.6851 65.5648 42.6188 65.5922 42.5471C65.6195 42.4698 65.6359 42.387 65.6359 42.2987C65.6359 42.1165 65.5758 41.9785 65.461 41.8847C65.3408 41.7909 65.166 41.7412 64.9202 41.7412H64.4995V42.9224L64.505 42.9114Z" fill="#A4A4A4"></path>
  <path d="M70.6185 41.2227V41.7636H69.5586V44.7719H68.903V41.7636H67.8376V41.2227H70.613H70.6185Z" fill="#A4A4A4"></path>
  <path d="M73.0334 44.7774H72.3778V41.2227H73.0334V44.7774Z" fill="#A4A4A4"></path>
  <path d="M77.3001 41.2227V41.747H75.7431V42.8013H77.0597V43.3312H75.7431V44.7774H75.082V41.2227H77.3001Z" fill="#A4A4A4"></path>
  <path d="M79.8187 44.7774H79.1631V41.2227H79.8187V44.7774Z" fill="#A4A4A4"></path>
  <path d="M84.0852 41.2227V41.747H82.5281V42.7351H83.7574V43.2429H82.5281V44.2475H84.0852V44.7774H81.8671V41.2227H84.0852Z" fill="#A4A4A4"></path>
  <path d="M89.0297 43C89.0297 43.2595 88.986 43.5023 88.8986 43.7176C88.8111 43.9329 88.6909 44.1205 88.538 44.2806C88.385 44.4407 88.1938 44.5621 87.9753 44.6449C87.7567 44.7332 87.5163 44.7774 87.2486 44.7774H85.9047V41.2227H87.2486C87.5163 41.2227 87.7567 41.2668 87.9753 41.3551C88.1938 41.4434 88.3795 41.5649 88.538 41.7194C88.6909 41.874 88.8166 42.0617 88.8986 42.2825C88.9805 42.5032 89.0297 42.7406 89.0297 43ZM88.3631 43C88.3631 42.8068 88.3358 42.6302 88.2867 42.4756C88.2375 42.3211 88.161 42.1886 88.0627 42.0837C87.9698 41.9789 87.8496 41.8961 87.713 41.8354C87.5764 41.7802 87.4235 41.747 87.2486 41.747H86.5657V44.2475H87.2486C87.418 44.2475 87.5764 44.2199 87.713 44.1592C87.8496 44.104 87.9643 44.0212 88.0627 43.9108C88.161 43.8059 88.232 43.6734 88.2867 43.5189C88.3413 43.3643 88.3631 43.1877 88.3631 42.9945V43Z" fill="#A4A4A4"></path>
  <path d="M15.046 59.0495L15.7453 58.9722C15.7617 59.1157 15.8054 59.2206 15.8819 59.2923C15.9529 59.3641 16.0512 59.3972 16.166 59.3972C16.3135 59.3972 16.4446 59.3254 16.5484 59.1875C16.6522 59.0495 16.7178 58.7624 16.7505 58.3264C16.5703 58.5416 16.3408 58.6465 16.0676 58.6465C15.7726 58.6465 15.5158 58.5306 15.2973 58.2988C15.0842 58.0669 14.975 57.7689 14.975 57.3935C14.975 57.0182 15.0897 56.6925 15.3137 56.4607C15.5432 56.2233 15.8327 56.1074 16.1824 56.1074C16.5648 56.1074 16.8817 56.2565 17.122 56.5545C17.3624 56.8526 17.4881 57.3439 17.4881 58.0283C17.4881 58.7128 17.3624 59.2261 17.1057 59.5352C16.8489 59.8443 16.5156 59.9989 16.1059 59.9989C15.8109 59.9989 15.5705 59.9216 15.3902 59.7615C15.2099 59.6014 15.0897 59.3641 15.0405 59.0495H15.046ZM16.6795 57.4487C16.6795 57.2114 16.6249 57.0292 16.5211 56.9023C16.4118 56.7698 16.2916 56.7091 16.1496 56.7091C16.0075 56.7091 15.9037 56.7643 15.8163 56.8691C15.7289 56.974 15.6852 57.1507 15.6852 57.3935C15.6852 57.6364 15.7344 57.8186 15.8272 57.9345C15.9256 58.0504 16.0458 58.1056 16.1878 58.1056C16.3299 58.1056 16.4446 58.0504 16.5375 57.94C16.6303 57.8296 16.6795 57.664 16.6795 57.4487Z" fill="#A4A4A4"></path>
  <path d="M17.9801 59.0495L18.6794 58.9722C18.6958 59.1157 18.7395 59.2206 18.816 59.2923C18.887 59.3641 18.9853 59.3972 19.1001 59.3972C19.2476 59.3972 19.3787 59.3254 19.4825 59.1875C19.5863 59.0495 19.6518 58.7624 19.6846 58.3264C19.5043 58.5416 19.2749 58.6465 19.0017 58.6465C18.7067 58.6465 18.4499 58.5306 18.2314 58.2988C18.0183 58.0669 17.9091 57.7689 17.9091 57.3935C17.9091 57.0182 18.0238 56.6925 18.2478 56.4607C18.4772 56.2233 18.7668 56.1074 19.1164 56.1074C19.4989 56.1074 19.8157 56.2565 20.0561 56.5545C20.2965 56.8526 20.4222 57.3439 20.4222 58.0283C20.4222 58.7128 20.2965 59.2261 20.0397 59.5352C19.783 59.8443 19.4497 59.9989 19.04 59.9989C18.7449 59.9989 18.5046 59.9216 18.3243 59.7615C18.144 59.6014 18.0238 59.3641 17.9746 59.0495H17.9801ZM19.6136 57.4487C19.6136 57.2114 19.559 57.0292 19.4552 56.9023C19.3459 56.7698 19.2257 56.7091 19.0837 56.7091C18.9416 56.7091 18.8378 56.7643 18.7504 56.8691C18.663 56.974 18.6193 57.1507 18.6193 57.3935C18.6193 57.6364 18.6685 57.8186 18.7613 57.9345C18.8597 58.0504 18.9799 58.1056 19.1219 58.1056C19.264 58.1056 19.3787 58.0504 19.4716 57.94C19.5644 57.8296 19.6136 57.664 19.6136 57.4487Z" fill="#A4A4A4"></path>
  <path d="M23.3447 57.0519L22.6454 57.1292C22.629 56.9857 22.5853 56.8753 22.5089 56.8091C22.4378 56.7428 22.345 56.7042 22.2302 56.7042C22.0773 56.7042 21.9461 56.776 21.8423 56.9139C21.7385 57.0519 21.673 57.339 21.6402 57.7806C21.8205 57.5653 22.0445 57.4604 22.3122 57.4604C22.6127 57.4604 22.8749 57.5763 23.088 57.8081C23.301 58.04 23.4103 58.3381 23.4103 58.7079C23.4103 59.0998 23.2956 59.4089 23.0716 59.6462C22.8421 59.8836 22.5526 59.9995 22.1974 59.9995C21.815 59.9995 21.5036 59.8505 21.2578 59.5524C21.0119 59.2543 20.8917 58.7631 20.8917 58.0786C20.8917 57.3942 21.0174 56.8753 21.2742 56.5662C21.5309 56.2571 21.8642 56.1025 22.2685 56.1025C22.5526 56.1025 22.7929 56.1853 22.9787 56.3454C23.1645 56.5055 23.2846 56.7428 23.3393 57.0519H23.3447ZM21.7058 58.6472C21.7058 58.8845 21.7604 59.0667 21.8697 59.1991C21.9789 59.3261 22.0991 59.3923 22.2412 59.3923C22.3832 59.3923 22.487 59.3371 22.5744 59.2323C22.6618 59.1274 22.7055 58.9507 22.7055 58.7134C22.7055 58.476 22.6564 58.2829 22.5635 58.1669C22.4652 58.051 22.345 57.9958 22.2029 57.9958C22.0609 57.9958 21.9461 58.051 21.8478 58.1614C21.7495 58.2718 21.7058 58.4319 21.7058 58.6472Z" fill="#A4A4A4"></path>
  <path d="M23.7982 58.9176L24.4975 58.8293C24.5194 59.0115 24.5795 59.1495 24.6778 59.2433C24.7761 59.3371 24.8963 59.3868 25.0329 59.3868C25.1804 59.3868 25.3061 59.3316 25.4099 59.2157C25.5137 59.0998 25.5629 58.9452 25.5629 58.752C25.5629 58.5699 25.5137 58.4208 25.4153 58.316C25.317 58.2111 25.1968 58.1559 25.0548 58.1559C24.9619 58.1559 24.8526 58.1725 24.7215 58.2111L24.8035 57.615C25.0001 57.615 25.1476 57.5763 25.2515 57.488C25.3553 57.3997 25.4044 57.2783 25.4044 57.1237C25.4044 56.9967 25.3662 56.8919 25.2897 56.8146C25.2132 56.7373 25.1149 56.6987 24.9892 56.6987C24.8636 56.6987 24.7598 56.7428 24.6723 56.8311C24.5849 56.9195 24.5303 57.0464 24.5139 57.212L23.8474 57.0961C23.8911 56.8643 23.9621 56.6821 24.055 56.5441C24.1479 56.4061 24.279 56.2957 24.4484 56.2185C24.6177 56.1412 24.8035 56.1025 25.0111 56.1025C25.3662 56.1025 25.6503 56.2185 25.8633 56.4448C26.0382 56.6324 26.131 56.8422 26.131 57.0795C26.131 57.4162 25.9508 57.6812 25.5902 57.8799C25.8087 57.9241 25.9781 58.0345 26.1092 58.1945C26.2403 58.3601 26.3059 58.5533 26.3059 58.7852C26.3059 59.1219 26.1857 59.4034 25.9453 59.6407C25.7049 59.8781 25.4044 59.994 25.0438 59.994C24.7051 59.994 24.421 59.8946 24.1916 59.6959C23.9676 59.4972 23.8365 59.2378 23.7982 58.9176Z" fill="#A4A4A4"></path>
  <path d="M6.87279 45.8526H6.50675L5.57799 43.6337H5.5616L5.36492 46.2666H4.92786L5.17917 43.0762H5.77467L6.6925 45.3503L7.63218 43.0762H8.21129L8.45714 46.2666H8.02554L7.83432 43.6116H7.81793L6.87279 45.8526Z" fill="#A4A4A4"></path>
  <path d="M11.2598 46.2663L10.9156 45.2727H9.68094L9.34222 46.2663H8.8833L10.0197 43.0703H10.5824L11.7187 46.2663H11.2598ZM9.81206 44.8863H10.7791L10.3038 43.4788H10.2874L9.81206 44.8863Z" fill="#A4A4A4"></path>
  <path d="M14.1063 45.5877H14.1281V43.0762H14.5597V46.2666H14.0571L12.6967 43.733H12.6749V46.2666H12.2433V43.0762H12.7787L14.1063 45.5877Z" fill="#A4A4A4"></path>
  <path d="M17.4606 46.2663L17.1164 45.2727H15.8817L15.543 46.2663H15.0841L16.2205 43.0703H16.7832L17.9196 46.2663H17.4606ZM16.0129 44.8863H16.9799L16.5046 43.4788H16.4882L16.0129 44.8863Z" fill="#A4A4A4"></path>
  <path d="M19.6624 46.311C18.373 46.2723 18.3457 45.5106 18.3457 45.0745V44.2687C18.3457 43.8326 18.373 43.0322 19.7334 43.0322C20.0885 43.0322 20.4218 43.0929 20.6348 43.1316V43.4959C20.4545 43.4628 20.094 43.4131 19.7334 43.4131C18.7992 43.4131 18.7828 43.9044 18.7828 44.2687V45.0745C18.7828 45.4278 18.7937 45.9025 19.6624 45.9301C19.9082 45.9301 20.2524 45.8694 20.4381 45.77V45.0635H19.7771V44.6826H20.8315V46.0019C20.5365 46.1785 20.1486 46.311 19.6678 46.311" fill="#A4A4A4"></path>
  <path d="M21.5363 46.2666V43.0762H23.4757V43.457H21.9733V44.5003H23.3118V44.8811H21.9733V45.8857H23.514V46.2666H21.5363Z" fill="#A4A4A4"></path>
  <path d="M26.0326 45.8526H25.672L24.7433 43.6337H24.7214L24.5302 46.2666H24.0931L24.339 43.0762H24.9345L25.8578 45.3503L26.792 43.0762H27.3711L27.6224 46.2666H27.1854L26.9996 43.6116H26.9832L26.0326 45.8526Z" fill="#A4A4A4"></path>
  <path d="M28.349 46.2666V43.0762H30.2885V43.457H28.7861V44.5003H30.1246V44.8811H28.7861V45.8857H30.3267V46.2666H28.349Z" fill="#A4A4A4"></path>
  <path d="M32.8724 45.5877H32.8887V43.0762H33.3258V46.2666H32.8232L31.4574 43.733H31.441V46.2666H31.0039V43.0762H31.5393L32.8724 45.5877Z" fill="#A4A4A4"></path>
  <path d="M34.8287 43.457H33.8672V43.0762H36.2219V43.457H35.2603V46.2666H34.8287V43.457Z" fill="#A4A4A4"></path>
  <path d="M11.8441 47.6856C11.4016 47.6856 11.1339 47.7573 11.1339 48.1382C11.1339 48.37 11.2814 48.4694 11.5873 48.635L12.1719 48.9385C12.5434 49.1262 12.7346 49.3304 12.7346 49.7941C12.7346 50.4399 12.2921 50.5779 11.5546 50.5779C11.3961 50.5779 10.97 50.5393 10.6367 50.451V50.0535C10.9536 50.1529 11.3961 50.1971 11.5546 50.1971C12.0189 50.1971 12.2976 50.1198 12.2976 49.7941C12.2976 49.5236 12.1883 49.4243 11.9643 49.3139L11.3469 48.9937C10.9208 48.7674 10.6968 48.5853 10.6968 48.1271C10.6968 47.4372 11.0956 47.3047 11.8441 47.3047C11.9916 47.3047 12.3631 47.3268 12.6254 47.404V47.8015C12.4232 47.7242 12.0135 47.6911 11.8441 47.6911" fill="#A4A4A4"></path>
  <path d="M14.4286 49.087H14.4395L15.33 47.3428H15.8326L14.6416 49.5341V50.5332H14.21V49.5231L13.019 47.3428H13.5271L14.4286 49.087Z" fill="#A4A4A4"></path>
  <path d="M17.308 47.6856C16.8654 47.6856 16.5977 47.7573 16.5977 48.1382C16.5977 48.37 16.7453 48.4694 17.0512 48.635L17.6358 48.9385C18.0073 49.1262 18.1985 49.3304 18.1985 49.7941C18.1985 50.4399 17.756 50.5779 17.0184 50.5779C16.86 50.5779 16.4338 50.5393 16.1006 50.451V50.0535C16.4175 50.1529 16.86 50.1971 17.0184 50.1971C17.4828 50.1971 17.7614 50.1198 17.7614 49.7941C17.7614 49.5236 17.6522 49.4243 17.4282 49.3139L16.8108 48.9937C16.3847 48.7674 16.1607 48.5853 16.1607 48.1271C16.1607 47.4372 16.5595 47.3047 17.308 47.3047C17.4555 47.3047 17.827 47.3268 18.0892 47.404V47.8015C17.8871 47.7242 17.4773 47.6911 17.308 47.6911" fill="#A4A4A4"></path>
  <path d="M19.5313 47.7236H18.5752V47.3428H20.9299V47.7236H19.9683V50.5332H19.5313V47.7236Z" fill="#A4A4A4"></path>
  <path d="M21.4707 50.5332V47.3428H23.4102V47.7236H21.9078V48.7669H23.2463V49.1477H21.9078V50.1523H23.4484V50.5332H21.4707Z" fill="#A4A4A4"></path>
  <path d="M25.9724 50.1192H25.6064L24.6776 47.9003H24.6612L24.4645 50.5332H24.0275L24.2788 47.3428H24.8743L25.7921 49.6169L26.7318 47.3428H27.3054L27.5567 50.5332H27.1197L26.9339 47.8782H26.9175L25.9724 50.1192Z" fill="#A4A4A4"></path>
  <path d="M29.3379 47.6856C28.8954 47.6856 28.6277 47.7573 28.6277 48.1382C28.6277 48.37 28.7752 48.4694 29.0811 48.635L29.6657 48.9385C30.0372 49.1262 30.2284 49.3304 30.2284 49.7941C30.2284 50.4399 29.7859 50.5779 29.0483 50.5779C28.8899 50.5779 28.4638 50.5393 28.1305 50.451V50.0535C28.4474 50.1529 28.8899 50.1971 29.0483 50.1971C29.5127 50.1971 29.7913 50.1198 29.7913 49.7941C29.7913 49.5236 29.6821 49.4243 29.4581 49.3139L28.8407 48.9937C28.4146 48.7674 28.1906 48.5853 28.1906 48.1271C28.1906 47.4372 28.5894 47.3047 29.3379 47.3047C29.4854 47.3047 29.8569 47.3268 30.1191 47.404V47.8015C29.917 47.7242 29.5072 47.6911 29.3379 47.6911" fill="#A4A4A4"></path>
  <path d="M17.9851 26.0754C16.8651 25.1757 15.6359 24.4029 14.3192 23.7902V26.6495C15.8872 27.7424 17.2639 29.0892 18.3894 30.6403V30.6513C19.411 28.7415 20.7167 26.8868 22.2683 25.2033C23.4921 23.873 24.8415 22.6808 26.2674 21.6706V19.2695C23.0659 20.8979 20.2414 23.31 17.9851 26.0809" fill="#A4A4A4"></path>
  <path d="M14.9912 9.676C14.9912 9.676 15.024 9.64288 15.0349 9.6208C15.0459 9.59873 15.0568 9.58217 15.0677 9.56009C15.0732 9.53801 15.0841 9.51593 15.0896 9.49385C15.0896 9.47177 15.095 9.44969 15.095 9.42209C15.095 9.39449 15.095 9.37793 15.0896 9.35033C15.0896 9.32826 15.0786 9.30618 15.0677 9.2841C15.0568 9.26202 15.0459 9.23994 15.0349 9.22338C15.024 9.2013 15.0076 9.18474 14.9912 9.16818C14.9748 9.15162 14.9584 9.13506 14.9366 9.12402C14.9202 9.11298 14.8983 9.10194 14.8765 9.09091C14.8546 9.07987 14.8328 9.07435 14.8109 9.06883C14.7672 9.05779 14.7181 9.05779 14.6743 9.06883C14.6525 9.06883 14.6306 9.07987 14.6088 9.09091C14.5869 9.10194 14.5651 9.11298 14.5487 9.12402C14.5268 9.13506 14.5105 9.15162 14.4941 9.16818C14.4777 9.18474 14.4613 9.2013 14.4504 9.22338C14.4394 9.23994 14.4285 9.26202 14.4176 9.2841C14.4066 9.30618 14.4012 9.32826 14.3957 9.35033C14.3957 9.37241 14.3903 9.39449 14.3903 9.42209C14.3903 9.44969 14.3903 9.46625 14.3957 9.49385C14.3957 9.51593 14.4066 9.53801 14.4176 9.56009C14.423 9.58217 14.4394 9.60425 14.4504 9.6208C14.4613 9.63736 14.4777 9.65944 14.4941 9.676C14.5105 9.69256 14.5268 9.70912 14.5487 9.72016C14.5651 9.7312 14.5869 9.74224 14.6088 9.75328C14.6306 9.76432 14.6525 9.76984 14.6743 9.77536C14.6962 9.77536 14.7181 9.78088 14.7399 9.78088C14.8328 9.78088 14.9257 9.74224 14.9912 9.676Z" fill="#A4A4A4"></path>
  <path d="M14.6034 6.91075C14.658 6.94386 14.7181 6.96042 14.7782 6.96042C14.8984 6.96042 15.0186 6.89971 15.0842 6.78379C15.1825 6.61268 15.1224 6.39741 14.9585 6.29805C14.7891 6.19869 14.5761 6.25941 14.4777 6.42501C14.3794 6.59612 14.4395 6.81139 14.6034 6.91075Z" fill="#A4A4A4"></path>
  <path d="M15.401 6.2102C15.4775 6.2102 15.5595 6.18261 15.625 6.12741C15.7725 6.00045 15.7944 5.77966 15.6687 5.62511C15.5431 5.47607 15.3245 5.45399 15.177 5.58095C15.0295 5.7079 15.0077 5.9287 15.1279 6.08325C15.1989 6.16605 15.2972 6.2102 15.401 6.2102Z" fill="#A4A4A4"></path>
  <path d="M16.2421 5.7295C16.2803 5.7295 16.3186 5.72398 16.3568 5.70742C16.5426 5.64118 16.6354 5.44247 16.5753 5.2548C16.5098 5.06712 16.3131 4.97329 16.1273 5.034C15.9416 5.10024 15.8487 5.29895 15.9088 5.48663C15.958 5.63566 16.0946 5.72398 16.2421 5.72398" fill="#A4A4A4"></path>
  <path d="M17.1984 5.56395C17.3896 5.56395 17.5481 5.40388 17.5481 5.21069C17.5481 5.0175 17.3896 4.85742 17.1984 4.85742C17.0017 4.85742 16.8488 5.0175 16.8488 5.21069C16.8488 5.40388 17.0072 5.56395 17.1984 5.56395Z" fill="#A4A4A4"></path>
  <path d="M18.0291 5.71837C18.0673 5.73493 18.111 5.74045 18.1547 5.74045C18.2968 5.74045 18.4279 5.65213 18.4825 5.50862C18.5481 5.32646 18.4607 5.12223 18.2749 5.05047C18.0946 4.97872 17.8925 5.07255 17.8214 5.26023C17.7559 5.44238 17.8433 5.64661 18.0291 5.71837Z" fill="#A4A4A4"></path>
  <path d="M14.3739 7.87137C14.3739 7.87137 14.4176 7.87688 14.4394 7.87688C14.6033 7.87688 14.7508 7.76097 14.7836 7.58986C14.8219 7.39666 14.6962 7.20899 14.505 7.17587C14.3138 7.13724 14.128 7.26419 14.0952 7.45738C14.057 7.65057 14.1826 7.83825 14.3739 7.87137Z" fill="#A4A4A4"></path>
  <path d="M14.4943 8.84769C14.6855 8.81457 14.8166 8.63242 14.7838 8.43923C14.751 8.24603 14.5708 8.11356 14.3795 8.14668C14.1883 8.1798 14.0572 8.36195 14.09 8.55514C14.1173 8.72626 14.2703 8.85321 14.4342 8.85321C14.4506 8.85321 14.4724 8.85321 14.4943 8.85321" fill="#A4A4A4"></path>
  <path d="M18.8702 6.00545C18.8702 6.00545 18.9085 6.02753 18.9303 6.03857C18.9522 6.04961 18.974 6.05513 18.9959 6.06065C19.0177 6.06065 19.0396 6.06617 19.0614 6.06617C19.1543 6.06617 19.2472 6.02753 19.3128 5.9613C19.3783 5.89506 19.4166 5.80674 19.4166 5.70739C19.4166 5.68531 19.4166 5.66323 19.4111 5.64115C19.4111 5.61907 19.4002 5.59699 19.3892 5.57491C19.3783 5.55283 19.3674 5.53075 19.3565 5.51419C19.3455 5.49212 19.3291 5.47556 19.3128 5.459C19.2308 5.3762 19.1106 5.33756 18.9959 5.35964C18.974 5.35964 18.9522 5.37068 18.9303 5.38172C18.9085 5.39276 18.8866 5.4038 18.8702 5.41484C18.8538 5.42588 18.832 5.44244 18.8156 5.459C18.7992 5.47556 18.7828 5.49212 18.7719 5.51419C18.761 5.53075 18.75 5.55283 18.7391 5.57491C18.7282 5.59699 18.7227 5.61907 18.7173 5.64115C18.7173 5.66323 18.7118 5.68531 18.7118 5.70739C18.7118 5.80122 18.75 5.89506 18.8156 5.9613C18.832 5.97786 18.8484 5.99442 18.8702 6.00545Z" fill="#A4A4A4"></path>
  <path d="M26.5349 9.28996C26.5349 9.28996 26.513 9.2458 26.5021 9.22924C26.4912 9.20716 26.4748 9.1906 26.4584 9.17404C26.442 9.15748 26.4256 9.14092 26.4038 9.12988C26.3874 9.11884 26.3655 9.10781 26.3437 9.09677C26.3218 9.08573 26.2999 9.08021 26.2781 9.07469C26.2344 9.06365 26.1852 9.06365 26.1415 9.07469C26.1197 9.07469 26.0978 9.08573 26.076 9.09677C26.0541 9.10229 26.0322 9.11332 26.0159 9.12988C25.9995 9.14092 25.9776 9.15748 25.9612 9.17404C25.9448 9.1906 25.9284 9.20716 25.9175 9.22924C25.9066 9.2458 25.8957 9.26788 25.8847 9.28996C25.8738 9.31204 25.8683 9.33412 25.8629 9.35619C25.8629 9.37827 25.8574 9.40035 25.8574 9.42795C25.8574 9.45555 25.8574 9.47211 25.8629 9.49419C25.8629 9.51627 25.8738 9.53835 25.8847 9.56043C25.8957 9.58251 25.9066 9.60459 25.9175 9.62114C25.9284 9.64322 25.9448 9.65978 25.9612 9.67634C26.0268 9.74258 26.1142 9.78122 26.2071 9.78122C26.2289 9.78122 26.2508 9.78122 26.2726 9.7757C26.2945 9.7757 26.3163 9.76466 26.3382 9.75362C26.36 9.74258 26.3819 9.73154 26.3983 9.7205C26.4201 9.70946 26.4365 9.6929 26.4529 9.67634C26.4693 9.65978 26.4857 9.64322 26.4966 9.62114C26.5076 9.60459 26.5185 9.58251 26.5294 9.56043C26.5403 9.53835 26.5458 9.51627 26.5513 9.49419C26.5513 9.47211 26.5567 9.45003 26.5567 9.42795C26.5567 9.40587 26.5567 9.38379 26.5513 9.35619C26.5513 9.33412 26.5403 9.31204 26.5294 9.28996" fill="#A4A4A4"></path>
  <path d="M24.5904 5.70796C24.6287 5.72452 24.6669 5.73004 24.7052 5.73004C24.8527 5.73004 24.9892 5.6362 25.0384 5.49269C25.104 5.31054 25.0056 5.10631 24.8199 5.04007C24.6396 4.97383 24.4374 5.07319 24.3719 5.26086C24.3063 5.44301 24.4047 5.64724 24.5904 5.71348" fill="#A4A4A4"></path>
  <path d="M25.322 6.12677C25.3876 6.18197 25.4696 6.20957 25.546 6.20957C25.6498 6.20957 25.7482 6.16541 25.8192 6.08261C25.9449 5.93358 25.923 5.70727 25.7755 5.58583C25.628 5.45888 25.404 5.48096 25.2783 5.62999C25.1527 5.77902 25.1745 6.00534 25.322 6.13229" fill="#A4A4A4"></path>
  <path d="M25.8687 6.77818C25.9343 6.89409 26.049 6.95481 26.1747 6.95481C26.2348 6.95481 26.2949 6.93825 26.3495 6.90513C26.5188 6.80578 26.5735 6.5905 26.4751 6.41939C26.3768 6.24828 26.1637 6.19308 25.9944 6.29244C25.825 6.39179 25.7704 6.60706 25.8687 6.77818Z" fill="#A4A4A4"></path>
  <path d="M23.7491 5.56395C23.9403 5.56395 24.0987 5.40388 24.0987 5.21069C24.0987 5.01198 23.9403 4.85742 23.7491 4.85742C23.5578 4.85742 23.3994 5.0175 23.3994 5.21069C23.3994 5.40388 23.5578 5.56395 23.7491 5.56395Z" fill="#A4A4A4"></path>
  <path d="M26.4423 7.17001C26.2511 7.20865 26.1255 7.39081 26.1637 7.584C26.1965 7.75511 26.344 7.87103 26.5079 7.87103C26.5298 7.87103 26.5516 7.87103 26.5735 7.86551C26.7647 7.82687 26.8903 7.64472 26.8521 7.45152C26.8138 7.25833 26.6281 7.13138 26.4423 7.17001Z" fill="#A4A4A4"></path>
  <path d="M26.5734 8.14668C26.3822 8.11356 26.2019 8.24603 26.1691 8.43923C26.1363 8.63242 26.2674 8.81457 26.4586 8.84769C26.4805 8.84769 26.4969 8.85321 26.5187 8.85321C26.6881 8.85321 26.8356 8.73178 26.8629 8.55514C26.8957 8.36195 26.7646 8.1798 26.5734 8.14668Z" fill="#A4A4A4"></path>
  <path d="M22.798 5.74051C22.8417 5.74051 22.88 5.73499 22.9237 5.71843C23.104 5.65219 23.1969 5.44244 23.1313 5.26029C23.0603 5.07814 22.8581 4.9843 22.6778 5.05054C22.4976 5.11677 22.4047 5.32653 22.4702 5.50868C22.5249 5.65219 22.656 5.74051 22.798 5.74051Z" fill="#A4A4A4"></path>
  <path d="M21.5582 5.8506C21.5582 5.8506 21.5746 5.89476 21.591 5.91132C21.6019 5.9334 21.6183 5.94996 21.6347 5.96652C21.6511 5.98308 21.6675 5.99964 21.6893 6.01068C21.7057 6.02172 21.7276 6.03276 21.7494 6.0438C21.7713 6.05484 21.7931 6.06036 21.815 6.06588C21.8368 6.06588 21.8587 6.07139 21.886 6.07139C21.9789 6.07139 22.0717 6.03276 22.1318 5.96652C22.1482 5.94996 22.1646 5.9334 22.1756 5.91132C22.1865 5.89476 22.1974 5.87268 22.2083 5.8506C22.2193 5.82852 22.2247 5.80645 22.2302 5.78437C22.2302 5.76229 22.2356 5.74021 22.2356 5.71813C22.2356 5.62429 22.1974 5.53598 22.1318 5.46974C22.0499 5.38694 21.9297 5.3483 21.815 5.37038C21.7931 5.37038 21.7713 5.38142 21.7494 5.39246C21.7276 5.4035 21.7057 5.41454 21.6893 5.42558C21.6675 5.43662 21.6511 5.45318 21.6347 5.46974C21.5691 5.53598 21.5309 5.62981 21.5309 5.71813C21.5309 5.74021 21.5309 5.76229 21.5363 5.78437C21.5363 5.80645 21.5473 5.82852 21.5582 5.8506Z" fill="#A4A4A4"></path>
  <path d="M25.6666 9.64294C25.6065 9.49391 25.6119 9.32831 25.6775 9.17376L25.7922 8.90881C26.0271 8.36235 26.0326 7.75517 25.8195 7.2032C25.601 6.65122 25.1858 6.21516 24.6449 5.97781C24.1041 5.74046 23.5086 5.73494 22.9622 5.95021L22.9349 5.96125C22.3941 6.20412 21.8259 6.36419 21.2413 6.43595C21.214 6.18204 21.061 5.96125 20.848 5.84533C21.1921 5.6963 21.438 5.35407 21.438 4.95113C21.438 4.70826 21.3506 4.49299 21.2085 4.32187L20.99 4.06244C20.8042 3.84165 20.6841 3.56566 20.6513 3.26207C20.9518 3.29519 21.2249 3.42215 21.438 3.6043V2.5721C21.2195 2.75977 20.9463 2.88121 20.6513 2.91985C20.6841 2.61626 20.8097 2.34027 20.99 2.125H19.9684C20.1541 2.34579 20.2743 2.62178 20.3071 2.91985C20.0066 2.88673 19.7334 2.75977 19.5204 2.5721V3.6043C19.7389 3.41663 20.0121 3.29519 20.3071 3.26207C20.2743 3.56566 20.1487 3.84165 19.9684 4.06244L19.7498 4.32187C19.6078 4.49299 19.5204 4.70826 19.5204 4.95113C19.5204 5.35407 19.7608 5.6963 20.1104 5.84533C19.8973 5.96677 19.7444 6.18204 19.7171 6.43595C19.1325 6.36419 18.5698 6.20412 18.0234 5.96677L17.9907 5.95573C17.4443 5.74046 16.8488 5.74598 16.308 5.98333C15.7671 6.22068 15.3519 6.65674 15.1334 7.20872C14.9148 7.76069 14.9257 8.36787 15.1607 8.91433L15.2754 9.1848C15.341 9.33935 15.3464 9.50495 15.2863 9.65398C15.2262 9.80301 15.106 9.92445 14.9531 9.99068L14.6963 10.1011L15.6633 12.5574L16.1113 13.7C17.4716 13.1094 18.9522 12.8058 20.4764 12.8058C22.0007 12.8058 23.4813 13.1149 24.8416 13.7L25.2896 12.5574L26.2566 10.1011L25.9998 9.99068C25.8469 9.92445 25.7267 9.80301 25.6666 9.65398M18.9249 11.4589C18.1983 11.4589 17.6902 10.9235 17.712 10.3495C17.7175 10.2115 17.8377 10.0956 17.9743 10.0956C18.1108 10.0956 18.2365 10.217 18.2365 10.3605C18.2365 10.4267 18.2092 10.4875 18.1709 10.5371C18.4059 10.4985 18.5861 10.2943 18.5861 10.0459C18.5861 9.76989 18.3676 9.5491 18.0945 9.5491C17.8486 9.5491 17.6465 9.73126 17.6082 9.96861C17.6301 9.80853 17.6191 9.61534 17.57 9.41663C17.4662 8.95297 17.2149 8.61074 17.0127 8.66042C16.8106 8.7101 16.7341 9.12408 16.8324 9.58222C16.8761 9.78645 16.9526 9.96309 17.0346 10.1011C16.9035 9.90237 16.6412 9.82509 16.4172 9.93549C16.1714 10.0514 16.0676 10.3495 16.1823 10.5979C16.2861 10.8242 16.5374 10.929 16.7669 10.8628C16.7122 10.8407 16.6631 10.7966 16.6303 10.7303C16.5702 10.5979 16.6248 10.4378 16.7559 10.3771C16.8816 10.3164 17.0346 10.366 17.1056 10.493C17.3624 11.0008 17.1329 11.7018 16.4773 12.0164C16.3571 12.0716 16.2369 12.1103 16.1113 12.1324L15.4174 10.3771C15.5923 10.2446 15.7289 10.068 15.8108 9.86373C15.9255 9.57118 15.9201 9.24552 15.7944 8.94745L15.6797 8.67698C15.5049 8.27403 15.4994 7.82693 15.6578 7.41847C15.8163 7.01 16.1277 6.68986 16.5265 6.51322C16.9198 6.34211 17.3569 6.33107 17.7612 6.49115C18.384 6.76713 19.0287 6.94377 19.7007 7.02104V9.08544C19.9574 9.27863 20.1432 9.57118 20.2033 9.90237C19.6733 9.82509 19.2144 9.52702 18.9303 9.09648V11.1609C19.2199 10.7303 19.6788 10.4323 20.2087 10.355C20.1049 10.9787 19.5641 11.4534 18.9194 11.4534M24.8362 12.1324C24.7105 12.1103 24.5903 12.0772 24.4701 12.0164C23.8145 11.7018 23.5851 11.0008 23.8418 10.493C23.9074 10.366 24.0604 10.3164 24.1915 10.3771C24.3226 10.4378 24.3772 10.5979 24.3171 10.7303C24.2898 10.7911 24.2407 10.8352 24.1806 10.8628C24.41 10.9346 24.6613 10.8242 24.7651 10.5979C24.8799 10.3495 24.7761 10.0514 24.5302 9.93549C24.3062 9.83061 24.0494 9.90237 23.9129 10.1066C24.0003 9.96861 24.0713 9.79197 24.115 9.58774C24.2188 9.12408 24.1368 8.71562 23.9347 8.66594C23.7326 8.61626 23.4813 8.95849 23.3775 9.42215C23.3337 9.62638 23.3228 9.81957 23.3392 9.97413C23.301 9.73678 23.0988 9.55462 22.853 9.55462C22.5798 9.55462 22.3613 9.77541 22.3613 10.0514C22.3613 10.2998 22.5416 10.504 22.7765 10.5427C22.7328 10.4985 22.7109 10.4323 22.7109 10.366C22.7109 10.217 22.8311 10.1011 22.9732 10.1011C23.1152 10.1011 23.2299 10.2115 23.2354 10.355C23.2518 10.929 22.7437 11.4645 22.0226 11.4645C21.3779 11.4645 20.837 10.9898 20.7332 10.366C21.2632 10.4433 21.7221 10.7414 22.0116 11.1719V9.10752C21.7221 9.53254 21.2686 9.83613 20.7387 9.91341C20.7988 9.58222 20.9845 9.28967 21.2413 9.09648V7.03208C21.9078 6.95481 22.558 6.77817 23.1808 6.50218C23.5796 6.34763 24.0221 6.35315 24.4155 6.52426C24.8143 6.7009 25.1257 7.02104 25.2841 7.42951C25.4426 7.83797 25.4371 8.28507 25.2623 8.69354L25.1476 8.95849C25.0219 9.25656 25.0164 9.58222 25.1312 9.87477C25.2131 10.079 25.3497 10.2556 25.5245 10.3881L24.8307 12.1434L24.8362 12.1324Z" fill="#A4A4A4"></path>
  <path d="M20.471 14.9862C25.4644 14.9862 29.5291 19.0929 29.5291 24.138C29.5291 29.1831 25.4644 33.2898 20.471 33.2898C15.4775 33.2898 11.4128 29.1831 11.4128 24.138C11.4128 19.0929 15.4775 14.9862 20.471 14.9862ZM20.471 13.9209C14.8875 13.9209 10.3639 18.4913 10.3639 24.1325C10.3639 29.7737 14.8875 34.3441 20.471 34.3441C26.0544 34.3441 30.5781 29.7737 30.5781 24.1325C30.5781 18.4913 26.0544 13.9209 20.471 13.9209Z" fill="#A4A4A4"></path>
  <path d="M39.8984 51.9798H1.04895V1.0598H39.8984V51.9798ZM40.9473 0H0V53.0451H40.9528V0H40.9473Z" fill="#A4A4A4"></path>
  <path d="M9.11799 40.7193C9.93749 40.7193 10.4073 40.3771 10.4073 39.3117V36.0771H11.7513V39.1958C11.7513 40.9953 10.9318 41.7239 9.07975 41.7239C7.2277 41.7239 6.4082 40.9953 6.4082 39.1958V36.0771H7.81773V39.3117C7.81773 40.3771 8.29304 40.7193 9.10707 40.7193" fill="#A4A4A4"></path>
  <path d="M15.6468 36.0771V38.3127C15.6468 38.3789 15.6741 38.4065 15.7397 38.4065H16.0894C16.1713 38.4065 16.215 38.3899 16.2642 38.3292L18.0398 36.0771H19.6951L17.6519 38.6107C17.6136 38.6604 17.6082 38.6659 17.6082 38.7156V38.815C17.6082 38.8591 17.6191 38.8812 17.6519 38.9198L20.0175 41.6466H18.1162L16.2587 39.3228C16.2205 39.2786 16.1932 39.2565 16.1112 39.2565H15.7397C15.6741 39.2565 15.6468 39.2841 15.6468 39.3504V41.6411H14.2373V36.0771H15.6468Z" fill="#A4A4A4"></path>
  <path d="M26.3 41.6411L25.8629 40.4654C25.8302 40.3826 25.7919 40.3715 25.7045 40.3715C25.5078 40.3715 24.967 40.3715 24.4316 40.3715C23.9344 40.3715 23.4646 40.3715 23.2733 40.3715C23.1914 40.3715 23.1477 40.3826 23.1149 40.4654L22.6724 41.6411H21.2246L23.5137 36.0771H25.5078L27.7969 41.6411H26.3ZM25.3767 39.3504C25.4149 39.3504 25.4423 39.3117 25.4313 39.2731L24.6337 37.1811C24.6118 37.1204 24.59 37.1038 24.5299 37.1038H24.4479C24.3933 37.1038 24.3715 37.1204 24.3441 37.1811L23.552 39.2676C23.5356 39.3062 23.5629 39.3449 23.6066 39.3449H25.3767V39.3504Z" fill="#A4A4A4"></path>
  <path d="M34.08 36.2647C34.1947 36.2978 34.222 36.3088 34.222 36.3088V36.651V37.1423V37.3134C34.222 37.3134 34.0363 37.2748 34.0035 37.2693C33.6648 37.1975 32.9382 37.0374 32.1077 37.0374C31.4576 37.0374 30.9003 37.1313 30.9003 37.5949C30.9003 38.0586 31.2882 38.0972 32.2443 38.2352C33.632 38.4394 34.5334 38.6713 34.5334 39.985C34.5334 41.4146 33.1184 41.7182 31.7799 41.7182C30.8403 41.7182 29.7858 41.5305 29.5837 41.4532C29.4744 41.4146 29.4635 41.4146 29.4635 41.4146V41.0117V40.4818V40.3438C29.4635 40.3438 29.6165 40.3769 29.6493 40.3879C30.3759 40.5646 31.1189 40.6915 31.9165 40.6915C32.3208 40.6915 33.0911 40.6639 33.0911 40.1009C33.0911 39.6924 32.9163 39.5765 31.7854 39.4164C30.4414 39.2233 29.4744 38.9252 29.4744 37.6888C29.4744 36.2867 30.7802 36.0107 32.1405 36.0107C33.0146 36.0107 33.8942 36.1929 34.08 36.2591" fill="#A4A4A4"></path>
  <path d="M4.20127 14.9697H1.04895V15.5327H4.20127V14.9697Z" fill="#A4A4A4"></path>
  <path d="M4.20127 23.8506H1.04895V24.4136H4.20127V23.8506Z" fill="#A4A4A4"></path>
  <path d="M2.62238 16.7471H1.04895V17.3101H2.62238V16.7471Z" fill="#A4A4A4"></path>
  <path d="M2.62238 18.5244H1.04895V19.0874H2.62238V18.5244Z" fill="#A4A4A4"></path>
  <path d="M2.62238 20.2969H1.04895V20.8599H2.62238V20.2969Z" fill="#A4A4A4"></path>
  <path d="M2.62238 22.0732H1.04895V22.6363H2.62238V22.0732Z" fill="#A4A4A4"></path>
  <path d="M4.07015 32.7383H1.04895V33.3013H4.07015V32.7383Z" fill="#A4A4A4"></path>
  <path d="M2.62238 25.6289H1.04895V26.1919H2.62238V25.6289Z" fill="#A4A4A4"></path>
  <path d="M2.62238 27.4053H1.04895V27.9683H2.62238V27.4053Z" fill="#A4A4A4"></path>
  <path d="M2.62238 29.1826H1.04895V29.7456H2.62238V29.1826Z" fill="#A4A4A4"></path>
  <path d="M2.62238 30.96H1.04895V31.523H2.62238V30.96Z" fill="#A4A4A4"></path>
  <path d="M39.9039 32.7383H36.7516V33.3013H39.9039V32.7383Z" fill="#A4A4A4"></path>
  <path d="M39.9039 23.8506H36.7516V24.4136H39.9039V23.8506Z" fill="#A4A4A4"></path>
  <path d="M39.8986 30.96H38.3252V31.523H39.8986V30.96Z" fill="#A4A4A4"></path>
  <path d="M39.8986 29.1826H38.3252V29.7456H39.8986V29.1826Z" fill="#A4A4A4"></path>
  <path d="M39.8986 27.4053H38.3252V27.9683H39.8986V27.4053Z" fill="#A4A4A4"></path>
  <path d="M39.8986 25.6289H38.3252V26.1919H39.8986V25.6289Z" fill="#A4A4A4"></path>
  <path d="M39.9039 14.9697H36.8827V15.5327H39.9039V14.9697Z" fill="#A4A4A4"></path>
  <path d="M39.8986 22.0732H38.3252V22.6363H39.8986V22.0732Z" fill="#A4A4A4"></path>
  <path d="M39.8986 20.2969H38.3252V20.8599H39.8986V20.2969Z" fill="#A4A4A4"></path>
  <path d="M39.8986 18.5244H38.3252V19.0874H39.8986V18.5244Z" fill="#A4A4A4"></path>
  <path d="M39.8986 16.7471H38.3252V17.3101H39.8986V16.7471Z" fill="#A4A4A4"></path>
</svg>
