<svg width="721" height="268" viewBox="0 0 721 268" fill="none" xmlns="http://www.w3.org/2000/svg">
<path fill-rule="evenodd" clip-rule="evenodd" d="M614.705 -115.623C755.099 26.2305 755.105 256.211 614.711 398.059L254.717 761.793C240.677 775.98 217.913 775.98 203.878 761.793L92.0205 648.785C77.9854 634.598 77.9854 611.603 92.0205 597.422L452.019 233.687C502.559 182.612 502.559 99.8242 452.014 48.7542L413.884 10.2281C399.844 -3.95285 399.844 -26.9536 413.884 -41.14L525.73 -154.143C539.771 -168.33 562.535 -168.33 576.57 -154.143L614.705 -115.623Z" fill="#292929"/>
<path d="M614.705 -115.623C755.099 26.2305 755.105 256.211 614.711 398.059L254.717 761.793C240.677 775.98 217.913 775.98 203.878 761.793L92.0205 648.785C77.9854 634.598 77.9854 611.603 92.0205 597.422L452.019 233.687C502.559 182.612 502.559 99.8242 452.014 48.7542L413.884 10.2281C399.844 -3.95286 399.844 -26.9536 413.884 -41.14L525.73 -154.143C539.771 -168.33 562.535 -168.33 576.57 -154.143L614.705 -115.623" stroke="#F5F5F5" stroke-opacity="0.1"/>
<path fill-rule="evenodd" clip-rule="evenodd" d="M106.298 398.056C-34.0958 256.208 -34.1012 26.2278 106.293 -115.625L466.292 -479.36C480.327 -493.547 503.091 -493.547 517.126 -479.36L628.978 -366.351C643.018 -352.165 643.023 -329.17 628.983 -314.983L268.984 48.7515C218.445 99.8215 218.445 182.609 268.99 233.674L307.12 272.205C321.155 286.392 321.155 309.392 307.12 323.579L195.268 436.587C181.233 450.774 158.469 450.774 144.433 436.587L106.298 398.056Z" fill="#292929"/>
<path d="M106.298 398.056C-34.0958 256.208 -34.1012 26.2278 106.293 -115.625L466.292 -479.36C480.327 -493.547 503.091 -493.547 517.126 -479.36L628.978 -366.351C643.018 -352.165 643.023 -329.17 628.983 -314.983L268.984 48.7515C218.445 99.8215 218.445 182.609 268.99 233.674L307.12 272.205C321.155 286.392 321.155 309.392 307.12 323.579L195.268 436.587C181.233 450.774 158.469 450.774 144.433 436.587L106.298 398.056" stroke="#F5F5F5" stroke-opacity="0.1"/>
</svg>
